<svg xmlns="http://www.w3.org/2000/svg" id="Layer_1" data-name="Layer 1" viewBox="0 0 160 37"><defs><style>.cls-1{fill:#fff}.cls-2{fill:#6b2c89}</style></defs><path d="M34.52,11.6H45.09V13H37.68v5h6.91v1.39H37.68V26H34.52Z" class="cls-1"/><path d="M48.7,11.6h3.17v13h7.81V26h-11Z" class="cls-1"/><path d="M81.55,11.57H92.12V13h-7.4v5.06h6.91v1.4H84.72V26H81.55Z" class="cls-1"/><path d="M97.14,21.7,95.29,26h-3l6.33-14.47h3.49L108.24,26h-3.12l-1.85-4.34Zm5.71-1.33-1.43-3.67c-.42-1-.79-2.23-1.12-3.31h-.16c-.33,1.1-.74,2.34-1.11,3.31l-1.44,3.67Z" class="cls-1"/><path d="M111.7,11.78a34.36,34.36,0,0,1,4.56-.28,14.21,14.21,0,0,1,6.25,1,3.13,3.13,0,0,1,1.93,2.84c0,1.85-1.64,3.05-4.44,3.71v.05a4.22,4.22,0,0,1,3.74,3.24A12.92,12.92,0,0,0,125.31,26H122.1a11.67,11.67,0,0,1-1.48-3.58c-.62-2-1.81-2.73-4.52-2.73h-1.24V26H111.7Zm3.16,6.68h1.32c3,0,5.06-1.16,5.06-2.9s-1.32-2.7-4.73-2.72a12.88,12.88,0,0,0-1.65.08Z" class="cls-1"/><path d="M75,27.91h1v6.2h3.33v.76H75Z" class="cls-1"/><path d="M85.23,32.68l-.81,2.19h-1l2.65-7h1.22l2.67,7H88.84L88,32.68Zm2.56-.7L87,30c-.17-.46-.29-.87-.41-1.27h0q-.16.62-.39,1.26l-.77,2Z" class="cls-1"/><path d="M94.54,28a14.84,14.84,0,0,1,2.14-.15,4.81,4.81,0,0,1,3.16.87,3,3,0,0,1,1.1,2.49,3.47,3.47,0,0,1-1.12,2.71,5.18,5.18,0,0,1-3.45,1c-.72,0-1.32,0-1.83-.08Zm1,6.14a5.87,5.87,0,0,0,1,.06c2.15,0,3.32-1.08,3.32-2.95,0-1.64-1-2.69-3.16-2.69a6.36,6.36,0,0,0-1.18.1Z" class="cls-1"/><path d="M106.74,27.91v7h-1v-7Z" class="cls-1"/><path d="M116,31.61h-3v2.5h3.38v.76H112v-7h4.22v.76H113v2.19h3Z" class="cls-1"/><path d="M121,33.77a3.86,3.86,0,0,0,1.81.46c1,0,1.63-.49,1.63-1.19S124,32,123,31.66c-1.28-.4-2.06-1-2.06-2s1-1.89,2.52-1.89a3.87,3.87,0,0,1,1.73.34l-.28.73a3.5,3.5,0,0,0-1.48-.33c-1.07,0-1.47.57-1.47,1,0,.65.47,1,1.55,1.35,1.32.45,2,1,2,2s-.89,2-2.73,2a4.56,4.56,0,0,1-2-.44Z" class="cls-1"/><path d="M76.87,0A9.11,9.11,0,0,1,79,6.61c-.48,3.74-3,5.09-5.09,6.07s-7.52,2.82-7.17,7a6.17,6.17,0,0,1,.09-4.39c1-2,3.63-3.59,6.42-5.08C73.21,10.19,80.18,7.21,76.87,0Z" class="cls-2"/><path d="M62.83,3.14a6.15,6.15,0,0,0,.41,5,8,8,0,0,0,4.07,3s-3.69,1.12-5.43-1.57A5.55,5.55,0,0,1,62.83,3.14Z" class="cls-2"/><path d="M69.84,8.57A1.27,1.27,0,1,1,68.58,7.3,1.27,1.27,0,0,1,69.84,8.57Z" class="cls-2"/><path d="M66.82,11.93a5.07,5.07,0,0,0-1.45,3.52s-1.23-.69-1.06-1.67S66.36,12.05,66.82,11.93Z" class="cls-2"/><path d="M65.25,17.1s-.94,3.11.52,9a40.63,40.63,0,0,0,4.56,10.79,41.58,41.58,0,0,1-6.14-11.34S61.77,18.84,65.25,17.1Z" class="cls-2"/><path d="M70.5,37l0-.12a23.82,23.82,0,0,1-1.61-7,11.06,11.06,0,0,1,.88-6c.24-.67,1.57-2.68.6-4.62,0,0-.22-.43-.51-.93a3.61,3.61,0,0,1-.44-1.25c0-.3-.16-.15-.29,0a9.67,9.67,0,0,0-2.73,6S65.59,28.3,70.5,37Z" class="cls-2"/></svg>