<svg id="Layer_1" data-name="Layer 1" xmlns="http://www.w3.org/2000/svg" viewBox="0 0 320 68"><defs><style>.cls-1{fill:#231f20;}.cls-2{fill:#6b2c89;}</style></defs><path class="cls-1" d="M79.08,21.72h18.8v2.55H84.71v9H97v2.47H84.71V47.36H79.08Z"/><path class="cls-1" d="M104.32,21.72H110V44.89h13.9v2.47H104.32Z"/><path class="cls-1" d="M162.77,21.67h18.8v2.56H168.4v9h12.29v2.49H168.4V47.42h-5.63Z"/><path class="cls-1" d="M190.49,39.7l-3.29,7.72h-5.41l11.27-25.75h6.21l11,25.75h-5.56L201.4,39.7Zm10.17-2.37L198.1,30.8c-.73-1.84-1.39-4-2-5.89h-.29c-.59,1.95-1.32,4.17-2,5.89l-2.56,6.53Z"/><path class="cls-1" d="M216.4,22.05a59.3,59.3,0,0,1,8.12-.5c4.9,0,8.56.54,11.12,1.84s3.44,3,3.44,5c0,3.29-2.93,5.42-7.9,6.61v.07c3.65.58,5.56,2.41,6.65,5.78,1.1,3.55,2.13,5.73,2.78,6.53h-5.7c-.73-.76-1.69-3.21-2.64-6.38-1.09-3.52-3.22-4.85-8.05-4.85H222V47.42H216.4ZM222,33.93h2.34c5.41,0,9-2.06,9-5.16S231,24,225,23.92a22.11,22.11,0,0,0-2.93.15Z"/><path class="cls-1" d="M151.16,50.75H153v11h5.94v1.34h-7.73Z"/><path class="cls-1" d="M169.31,59.23l-1.44,3.89H166l4.72-12.37h2.16l4.74,12.37h-1.91l-1.49-3.89ZM173.87,58l-1.36-3.56c-.31-.81-.52-1.54-.72-2.26h0c-.21.74-.44,1.49-.7,2.24L169.69,58Z"/><path class="cls-1" d="M185.87,50.91a30,30,0,0,1,3.81-.25c2.58,0,4.41.53,5.63,1.54a5.42,5.42,0,0,1,2,4.44,6.16,6.16,0,0,1-2,4.81c-1.3,1.16-3.45,1.78-6.15,1.78a30,30,0,0,1-3.25-.15Zm1.79,10.94a11.59,11.59,0,0,0,1.81.1c3.84,0,5.92-1.91,5.92-5.25,0-2.92-1.83-4.78-5.63-4.78a11.39,11.39,0,0,0-2.1.17Z"/><path class="cls-1" d="M207.57,50.75V63.12h-1.79V50.75Z"/><path class="cls-1" d="M224.08,57.32h-5.4v4.46h6v1.34h-7.81V50.75h7.5v1.34h-5.71V56h5.4Z"/><path class="cls-1" d="M233,61.17a6.78,6.78,0,0,0,3.21.81c1.84,0,2.91-.86,2.91-2.11s-.74-1.82-2.62-2.46c-2.27-.71-3.67-1.76-3.67-3.5,0-1.93,1.79-3.36,4.5-3.36a7,7,0,0,1,3.07.6l-.5,1.31a6,6,0,0,0-2.64-.59c-1.89,0-2.62,1-2.62,1.85,0,1.16.85,1.73,2.77,2.39,2.35.81,3.54,1.81,3.54,3.63s-1.59,3.56-4.86,3.56a7.9,7.9,0,0,1-3.55-.79Z"/><path class="cls-2" d="M154.43,1.08s4.58,5.1,3.72,11.76-5.31,9.06-9.06,10.8-13.38,5-12.76,12.42c0,0-1.59-4.18.16-7.81s6.47-6.39,11.42-9C147.91,19.22,160.32,13.91,154.43,1.08Z"/><path class="cls-2" d="M129.45,6.67s-1.87,4.79.74,9A14.4,14.4,0,0,0,137.42,21s-6.57,2-9.66-2.8C126.35,16,125.61,11.1,129.45,6.67Z"/><path class="cls-2" d="M141.92,16.33a2.25,2.25,0,1,1-2.25-2.25A2.24,2.24,0,0,1,141.92,16.33Z"/><path class="cls-2" d="M136.55,22.3s-2.92,2.95-2.58,6.27c0,0-2.19-1.23-1.88-3S135.73,22.52,136.55,22.3Z"/><path class="cls-2" d="M133.75,31.5s-1.66,5.55.94,16.1a72.28,72.28,0,0,0,8.1,19.2s-7.64-9.75-10.93-20.18C131.86,46.62,127.57,34.6,133.75,31.5Z"/><path class="cls-2" d="M143.1,66.92l.08-.21a42.27,42.27,0,0,1-2.88-12.37c-.5-6.88,1.15-9.53,1.57-10.72s2.79-4.75,1.06-8.21c0,0-.39-.76-.89-1.66a6.54,6.54,0,0,1-.8-2.22c-.08-.53-.29-.27-.52,0a17.34,17.34,0,0,0-4.85,10.6S134.37,51.43,143.1,66.92Z"/></svg>